<?xml version="1.0" encoding="UTF-8" standalone="no"?>
<svg
   xmlns:dc="http://purl.org/dc/elements/1.1/"
   xmlns:cc="http://creativecommons.org/ns#"
   xmlns:rdf="http://www.w3.org/1999/02/22-rdf-syntax-ns#"
   xmlns:svg="http://www.w3.org/2000/svg"
   xmlns="http://www.w3.org/2000/svg"
   xmlns:sodipodi="http://sodipodi.sourceforge.net/DTD/sodipodi-0.dtd"
   xmlns:inkscape="http://www.inkscape.org/namespaces/inkscape"
   height="100px"
   width="100px"
   fill="#000000"
   version="1.1"
   x="0px"
   y="0px"
   viewBox="0 0 64 64"
   style="enable-background:new 0 0 64 64;"
   xml:space="preserve"
   id="svg324"
   sodipodi:docname="meditation.svg"
   inkscape:version="0.92.5 (2060ec1f9f, 2020-04-08)"><metadata
     id="metadata330"><rdf:RDF><cc:Work
         rdf:about=""><dc:format>image/svg+xml</dc:format><dc:type
           rdf:resource="http://purl.org/dc/dcmitype/StillImage" /></cc:Work></rdf:RDF></metadata><defs
     id="defs328" /><sodipodi:namedview
     pagecolor="#ffffff"
     bordercolor="#666666"
     borderopacity="1"
     objecttolerance="10"
     gridtolerance="10"
     guidetolerance="10"
     inkscape:pageopacity="0"
     inkscape:pageshadow="2"
     inkscape:window-width="1920"
     inkscape:window-height="1016"
     id="namedview326"
     showgrid="false"
     inkscape:zoom="3.337544"
     inkscape:cx="47.838541"
     inkscape:cy="67.845022"
     inkscape:window-x="0"
     inkscape:window-y="27"
     inkscape:window-maximized="1"
     inkscape:current-layer="svg324" /><g
     id="g282"><text
       transform="matrix(1 0 0 1 14.6899 -213)"
       id="text10"><tspan
         x="0"
         y="0"
         style=""
         font-family="'Montserrat-Regular'"
         font-size="10px"
         id="tspan2">heart</tspan><tspan
         x="4.3"
         y="12"
         style=""
         font-family="'Montserrat-Regular'"
         font-size="10px"
         id="tspan4">r</tspan><tspan
         x="11.53"
         y="12"
         style=""
         font-family="'Montserrat-Regular'"
         font-size="10px"
         id="tspan6">a</tspan><tspan
         x="18.12"
         y="12"
         style=""
         font-family="'Montserrat-Regular'"
         font-size="10px"
         id="tspan8">te</tspan></text>
<text
       transform="matrix(1 0 0 1 118.27 -213)"
       style=""
       font-family="'Montserrat-Regular'"
       font-size="10px"
       id="text12">tea</text>
<text
       transform="matrix(1 0 0 1 100.2305 -117)"
       style=""
       font-family="'Montserrat-Regular'"
       font-size="10px"
       id="text14">checklist</text>
<text
       transform="matrix(1 0 0 1 201.4751 -213)"
       id="text24"><tspan
         x="0"
         y="0"
         style=""
         font-family="'Montserrat-Regular'"
         font-size="10px"
         id="tspan16">pr</tspan><tspan
         x="13.94"
         y="0"
         style=""
         font-family="'Montserrat-Regular'"
         font-size="10px"
         id="tspan18">o</tspan><tspan
         x="21.95"
         y="0"
         style=""
         font-family="'Montserrat-Regular'"
         font-size="10px"
         id="tspan20">tein</tspan><tspan
         x="-14.805"
         y="12"
         style=""
         font-family="'Montserrat-Regular'"
         font-size="10px"
         id="tspan22">supplements</tspan></text>
<text
       transform="matrix(1 0 0 1 293.1001 -213)"
       id="text34"><tspan
         x="0"
         y="0"
         style=""
         font-family="'Montserrat-Regular'"
         font-size="10px"
         id="tspan26">Weighing</tspan><tspan
         x="7.75"
         y="12"
         style=""
         font-family="'Montserrat-Regular'"
         font-size="10px"
         id="tspan28">s</tspan><tspan
         x="13.91"
         y="12"
         style=""
         font-family="'Montserrat-Regular'"
         font-size="10px"
         id="tspan30">c</tspan><tspan
         x="20.86"
         y="12"
         style=""
         font-family="'Montserrat-Regular'"
         font-size="10px"
         id="tspan32">ales</tspan></text>
<text
       transform="matrix(1 0 0 1 393.4751 -213)"
       id="text44"><tspan
         x="0"
         y="0"
         style=""
         font-family="'Montserrat-Regular'"
         font-size="10px"
         id="tspan36">pr</tspan><tspan
         x="13.94"
         y="0"
         style=""
         font-family="'Montserrat-Regular'"
         font-size="10px"
         id="tspan38">o</tspan><tspan
         x="21.95"
         y="0"
         style=""
         font-family="'Montserrat-Regular'"
         font-size="10px"
         id="tspan40">tein</tspan><tspan
         x="5.05"
         y="12"
         style=""
         font-family="'Montserrat-Regular'"
         font-size="10px"
         id="tspan42">shake</tspan></text>
<text
       transform="matrix(1 0 0 1 495.0552 -213)"
       id="text56"><tspan
         x="0"
         y="0"
         style=""
         font-family="'Montserrat-Regular'"
         font-size="10px"
         id="tspan46">Sport</tspan><tspan
         x="-1.42"
         y="12"
         style=""
         font-family="'Montserrat-Regular'"
         font-size="10px"
         id="tspan48">w</tspan><tspan
         x="8.57"
         y="12"
         style=""
         font-family="'Montserrat-Regular'"
         font-size="10px"
         id="tspan50">a</tspan><tspan
         x="15.16"
         y="12"
         style=""
         font-family="'Montserrat-Regular'"
         font-size="10px"
         id="tspan52">t</tspan><tspan
         x="20.39"
         y="12"
         style=""
         font-family="'Montserrat-Regular'"
         font-size="10px"
         id="tspan54">ch</tspan></text>
<text
       transform="matrix(1 0 0 1 7.7852 -117)"
       id="text64"><tspan
         x="0"
         y="0"
         style=""
         font-family="'Montserrat-Regular'"
         font-size="10px"
         id="tspan58">vi</tspan><tspan
         x="9.72"
         y="0"
         style=""
         font-family="'Montserrat-Regular'"
         font-size="10px"
         id="tspan60">t</tspan><tspan
         x="14.72"
         y="0"
         style=""
         font-family="'Montserrat-Regular'"
         font-size="10px"
         id="tspan62">amins</tspan></text>
<text
       transform="matrix(1 0 0 1 205.9951 -117)"
       id="text78"><tspan
         x="0"
         y="0"
         style=""
         font-family="'Montserrat-Regular'"
         font-size="10px"
         id="tspan66">W</tspan><tspan
         x="9.99"
         y="0"
         style=""
         font-family="'Montserrat-Regular'"
         font-size="10px"
         id="tspan68">a</tspan><tspan
         x="16.58"
         y="0"
         style=""
         font-family="'Montserrat-Regular'"
         font-size="10px"
         id="tspan70">ter</tspan><tspan
         x="-1.115"
         y="12"
         style=""
         font-family="'Montserrat-Regular'"
         font-size="10px"
         id="tspan72">B</tspan><tspan
         x="6.005"
         y="12"
         style=""
         font-family="'Montserrat-Regular'"
         font-size="10px"
         id="tspan74">o</tspan><tspan
         x="14.015"
         y="12"
         style=""
         font-family="'Montserrat-Regular'"
         font-size="10px"
         id="tspan76">ttle</tspan></text>
<text
       transform="matrix(1 0 0 1 290.6455 -117)"
       id="text84"><tspan
         x="0"
         y="0"
         style=""
         font-family="'Montserrat-Regular'"
         font-size="10px"
         id="tspan80"> dumbbell</tspan><tspan
         x="5.745"
         y="12"
         style=""
         font-family="'Montserrat-Regular'"
         font-size="10px"
         id="tspan82">weights</tspan></text>
<text
       transform="matrix(1 0 0 1 385.5806 -117)"
       style=""
       font-family="'Montserrat-Regular'"
       font-size="10px"
       id="text86">kettlebell</text>
<text
       transform="matrix(1 0 0 1 487.4302 -117)"
       style=""
       font-family="'Montserrat-Regular'"
       font-size="10px"
       id="text88">running</text>
<text
       transform="matrix(1 0 0 1 17.79 -21)"
       style=""
       font-family="'Montserrat-Regular'"
       font-size="10px"
       id="text90">meal</text>
<text
       transform="matrix(1 0 0 1 116.5054 -21)"
       style=""
       font-family="'Montserrat-Regular'"
       font-size="10px"
       id="text92">diet</text>
<text
       transform="matrix(1 0 0 1 199.9302 -21)"
       id="text98"><tspan
         x="0"
         y="0"
         style=""
         font-family="'Montserrat-Regular'"
         font-size="10px"
         id="tspan94">Electric</tspan><tspan
         x="-4.605"
         y="12"
         style=""
         font-family="'Montserrat-Regular'"
         font-size="10px"
         id="tspan96">treadmill</tspan></text>
<text
       transform="matrix(1 0 0 1 293.0454 -21)"
       id="text110"><tspan
         x="0"
         y="0"
         style=""
         font-family="'Montserrat-Regular'"
         font-size="10px"
         id="tspan100">W</tspan><tspan
         x="10.32"
         y="0"
         style=""
         font-family="'Montserrat-Regular'"
         font-size="10px"
         id="tspan102">or</tspan><tspan
         x="25.67"
         y="0"
         style=""
         font-family="'Montserrat-Regular'"
         font-size="10px"
         id="tspan104">k</tspan><tspan
         x="32.5"
         y="0"
         style=""
         font-family="'Montserrat-Regular'"
         font-size="10px"
         id="tspan106">out</tspan><tspan
         x="-0.46"
         y="12"
         style=""
         font-family="'Montserrat-Regular'"
         font-size="10px"
         id="tspan108">Schedule</tspan></text>
<text
       transform="matrix(1 0 0 1 401.335 -21)"
       id="text120"><tspan
         x="0"
         y="0"
         style=""
         font-family="'Montserrat-Regular'"
         font-size="10px"
         id="tspan112">bo</tspan><tspan
         x="15.24"
         y="0"
         style=""
         font-family="'Montserrat-Regular'"
         font-size="10px"
         id="tspan114">d</tspan><tspan
         x="23.03"
         y="0"
         style=""
         font-family="'Montserrat-Regular'"
         font-size="10px"
         id="tspan116">y</tspan><tspan
         x="-2.63"
         y="12"
         style=""
         font-family="'Montserrat-Regular'"
         font-size="10px"
         id="tspan118">shape</tspan></text>
<text
       transform="matrix(1 0 0 1 491.4702 -21)"
       id="text126"><tspan
         x="0"
         y="0"
         style=""
         font-family="'Montserrat-Regular'"
         font-size="10px"
         id="tspan122">weight</tspan><tspan
         x="-4.205"
         y="12"
         style=""
         font-family="'Montserrat-Regular'"
         font-size="10px"
         id="tspan124">training</tspan></text>
<text
       transform="matrix(1 0 0 1 0.5054 75)"
       id="text134"><tspan
         x="0"
         y="0"
         style=""
         font-family="'Montserrat-Regular'"
         font-size="10px"
         id="tspan128">medi</tspan><tspan
         x="26.71"
         y="0"
         style=""
         font-family="'Montserrat-Regular'"
         font-size="10px"
         id="tspan130">ta</tspan><tspan
         x="38.3"
         y="0"
         style=""
         font-family="'Montserrat-Regular'"
         font-size="10px"
         id="tspan132">tion</tspan></text>
<text
       transform="matrix(1 0 0 1 93.6304 75)"
       id="text142"><tspan
         x="0"
         y="0"
         style=""
         font-family="'Montserrat-Regular'"
         font-size="10px"
         id="tspan136">brain</tspan><tspan
         x="32.51"
         y="0"
         style=""
         font-family="'Montserrat-Regular'"
         font-size="10px"
         id="tspan138">wa</tspan><tspan
         x="49.29"
         y="0"
         style=""
         font-family="'Montserrat-Regular'"
         font-size="10px"
         id="tspan140">ves</tspan></text>
<text
       transform="matrix(1 0 0 1 206.915 75)"
       id="text156"><tspan
         x="0"
         y="0"
         style=""
         font-family="'Montserrat-Regular'"
         font-size="10px"
         id="tspan144">fl</tspan><tspan
         x="10.92"
         y="0"
         style=""
         font-family="'Montserrat-Regular'"
         font-size="10px"
         id="tspan146">o</tspan><tspan
         x="18.82"
         y="0"
         style=""
         font-family="'Montserrat-Regular'"
         font-size="10px"
         id="tspan148">or</tspan><tspan
         x="3.475"
         y="12"
         style=""
         font-family="'Montserrat-Regular'"
         font-size="10px"
         id="tspan150">p</tspan><tspan
         x="10.185"
         y="12"
         style=""
         font-family="'Montserrat-Regular'"
         font-size="10px"
         id="tspan152">l</tspan><tspan
         x="15.495"
         y="12"
         style=""
         font-family="'Montserrat-Regular'"
         font-size="10px"
         id="tspan154">an</tspan></text>
<text
       transform="matrix(1 0 0 1 304.0151 75)"
       id="text166"><tspan
         x="0"
         y="0"
         style=""
         font-family="'Montserrat-Regular'"
         font-size="10px"
         id="tspan158">home</tspan><tspan
         x="1.79"
         y="12"
         style=""
         font-family="'Montserrat-Regular'"
         font-size="10px"
         id="tspan160">l</tspan><tspan
         x="7.03"
         y="12"
         style=""
         font-family="'Montserrat-Regular'"
         font-size="10px"
         id="tspan162">o</tspan><tspan
         x="14.98"
         y="12"
         style=""
         font-family="'Montserrat-Regular'"
         font-size="10px"
         id="tspan164">an</tspan></text>
<text
       transform="matrix(1 0 0 1 381.3003 75)"
       id="text176"><tspan
         x="0"
         y="0"
         style=""
         font-family="'Montserrat-Regular'"
         font-size="10px"
         id="tspan168">house price</tspan><tspan
         x="11.285"
         y="12"
         style=""
         font-family="'Montserrat-Regular'"
         font-size="10px"
         id="tspan170">gr</tspan><tspan
         x="26.024"
         y="12"
         style=""
         font-family="'Montserrat-Regular'"
         font-size="10px"
         id="tspan172">o</tspan><tspan
         x="34.055"
         y="12"
         style=""
         font-family="'Montserrat-Regular'"
         font-size="10px"
         id="tspan174">wth</tspan></text>
<text
       transform="matrix(1 0 0 1 496.0151 75)"
       id="text190"><tspan
         x="0"
         y="0"
         style=""
         font-family="'Montserrat-Regular'"
         font-size="10px"
         id="tspan178">home</tspan><tspan
         x="-17.665"
         y="12"
         style=""
         font-family="'Montserrat-Regular'"
         font-size="10px"
         id="tspan180">ren</tspan><tspan
         x="4.035"
         y="12"
         style=""
         font-family="'Montserrat-Regular'"
         font-size="10px"
         id="tspan182">o</tspan><tspan
         x="12.065"
         y="12"
         style=""
         font-family="'Montserrat-Regular'"
         font-size="10px"
         id="tspan184">v</tspan><tspan
         x="18.355"
         y="12"
         style=""
         font-family="'Montserrat-Regular'"
         font-size="10px"
         id="tspan186">a</tspan><tspan
         x="24.945"
         y="12"
         style=""
         font-family="'Montserrat-Regular'"
         font-size="10px"
         id="tspan188">tion</tspan></text>
<text
       transform="matrix(1 0 0 1 16.0151 171)"
       id="text196"><tspan
         x="0"
         y="0"
         style=""
         font-family="'Montserrat-Regular'"
         font-size="10px"
         id="tspan192">home</tspan><tspan
         x="-14.33"
         y="12"
         style=""
         font-family="'Montserrat-Regular'"
         font-size="10px"
         id="tspan194">insurance</tspan></text>
<text
       transform="matrix(1 0 0 1 106.9702 171)"
       id="text206"><tspan
         x="0"
         y="0"
         style=""
         font-family="'Montserrat-Regular'"
         font-size="10px"
         id="tspan198">bu</tspan><tspan
         x="14.74"
         y="0"
         style=""
         font-family="'Montserrat-Regular'"
         font-size="10px"
         id="tspan200">d</tspan><tspan
         x="22.35"
         y="0"
         style=""
         font-family="'Montserrat-Regular'"
         font-size="10px"
         id="tspan202">get</tspan><tspan
         x="2.85"
         y="12"
         style=""
         font-family="'Montserrat-Regular'"
         font-size="10px"
         id="tspan204">house</tspan></text>
<text
       transform="matrix(1 0 0 1 206.96 171)"
       id="text218"><tspan
         x="0"
         y="0"
         style=""
         font-family="'Montserrat-Regular'"
         font-size="10px"
         id="tspan208">so</tspan><tspan
         x="14.28"
         y="0"
         style=""
         font-family="'Montserrat-Regular'"
         font-size="10px"
         id="tspan210">l</tspan><tspan
         x="19.59"
         y="0"
         style=""
         font-family="'Montserrat-Regular'"
         font-size="10px"
         id="tspan212">ar</tspan><tspan
         x="-2.675"
         y="12"
         style=""
         font-family="'Montserrat-Regular'"
         font-size="10px"
         id="tspan214">p</tspan><tspan
         x="3.625"
         y="12"
         style=""
         font-family="'Montserrat-Regular'"
         font-size="10px"
         id="tspan216">anels</tspan></text>
<text
       transform="matrix(1 0 0 1 295.8804 171)"
       id="text226"><tspan
         x="0"
         y="0"
         style=""
         font-family="'Montserrat-Regular'"
         font-size="10px"
         id="tspan220">housing</tspan><tspan
         x="-5.705"
         y="12"
         style=""
         font-family="'Montserrat-Regular'"
         font-size="10px"
         id="tspan222">do</tspan><tspan
         x="9.805"
         y="12"
         style=""
         font-family="'Montserrat-Regular'"
         font-size="10px"
         id="tspan224">cument</tspan></text>
<text
       transform="matrix(1 0 0 1 391.8804 171)"
       id="text236"><tspan
         x="0"
         y="0"
         style=""
         font-family="'Montserrat-Regular'"
         font-size="10px"
         id="tspan228">housing</tspan><tspan
         x="10.51"
         y="12"
         style=""
         font-family="'Montserrat-Regular'"
         font-size="10px"
         id="tspan230">p</tspan><tspan
         x="17.22"
         y="12"
         style=""
         font-family="'Montserrat-Regular'"
         font-size="10px"
         id="tspan232">l</tspan><tspan
         x="22.529"
         y="12"
         style=""
         font-family="'Montserrat-Regular'"
         font-size="10px"
         id="tspan234">an</tspan></text>
<text
       transform="matrix(1 0 0 1 493.8203 171)"
       id="text244"><tspan
         x="0"
         y="0"
         style=""
         font-family="'Montserrat-Regular'"
         font-size="10px"
         id="tspan238">house</tspan><tspan
         x="0.81"
         y="12"
         style=""
         font-family="'Montserrat-Regular'"
         font-size="10px"
         id="tspan240">a</tspan><tspan
         x="7.9"
         y="12"
         style=""
         font-family="'Montserrat-Regular'"
         font-size="10px"
         id="tspan242">gent</tspan></text>
<text
       transform="matrix(1 0 0 1 3.98 267)"
       id="text254"><tspan
         x="0"
         y="0"
         style=""
         font-family="'Montserrat-Regular'"
         font-size="10px"
         id="tspan246">grad</tspan><tspan
         x="29.83"
         y="0"
         style=""
         font-family="'Montserrat-Regular'"
         font-size="10px"
         id="tspan248">u</tspan><tspan
         x="37.25"
         y="0"
         style=""
         font-family="'Montserrat-Regular'"
         font-size="10px"
         id="tspan250">a</tspan><tspan
         x="43.84"
         y="0"
         style=""
         font-family="'Montserrat-Regular'"
         font-size="10px"
         id="tspan252">te</tspan></text>
<text
       transform="matrix(1 0 0 1 101.415 267)"
       style=""
       font-family="'Montserrat-Regular'"
       font-size="10px"
       id="text256">engineer</text>
<text
       transform="matrix(1 0 0 1 210.4351 267)"
       style=""
       font-family="'Montserrat-Regular'"
       font-size="10px"
       id="text258">chef</text>
<text
       transform="matrix(1 0 0 1 304.0151 267)"
       id="text268"><tspan
         x="0"
         y="0"
         style=""
         font-family="'Montserrat-Regular'"
         font-size="10px"
         id="tspan260">home</tspan><tspan
         x="-5.31"
         y="12"
         style=""
         font-family="'Montserrat-Regular'"
         font-size="10px"
         id="tspan262">m</tspan><tspan
         x="4.08"
         y="12"
         style=""
         font-family="'Montserrat-Regular'"
         font-size="10px"
         id="tspan264">o</tspan><tspan
         x="12.11"
         y="12"
         style=""
         font-family="'Montserrat-Regular'"
         font-size="10px"
         id="tspan266">ving</tspan></text>
<text
       transform="matrix(1 0 0 1 397.8203 267)"
       id="text274"><tspan
         x="0"
         y="0"
         style=""
         font-family="'Montserrat-Regular'"
         font-size="10px"
         id="tspan270">house</tspan><tspan
         x="-7.33"
         y="12"
         style=""
         font-family="'Montserrat-Regular'"
         font-size="10px"
         id="tspan272">for rent</tspan></text>
<text
       transform="matrix(1 0 0 1 493.8203 267)"
       id="text280"><tspan
         x="0"
         y="0"
         style=""
         font-family="'Montserrat-Regular'"
         font-size="10px"
         id="tspan276">house</tspan><tspan
         x="-12.81"
         y="12"
         style=""
         font-family="'Montserrat-Regular'"
         font-size="10px"
         id="tspan278">inspection</tspan></text>
</g><rect
     x="60"
     y="4"
     width="2"
     height="2"
     id="rect284"
     style="fill:#ffffff;fill-opacity:1" /><rect
     x="58"
     y="2"
     width="2"
     height="2"
     id="rect286"
     style="fill:#ffffff;fill-opacity:1" /><rect
     x="56"
     y="4"
     width="2"
     height="2"
     id="rect288"
     style="fill:#ffffff;fill-opacity:1" /><rect
     x="58"
     y="6"
     width="2"
     height="2"
     id="rect290"
     style="fill:#ffffff;fill-opacity:1" /><rect
     x="52"
     y="4"
     width="2"
     height="2"
     id="rect292"
     style="fill:#ffffff;fill-opacity:1" /><rect
     x="50"
     y="24"
     width="2"
     height="2"
     id="rect294"
     style="fill:#ffffff;fill-opacity:1" /><rect
     x="54"
     y="24"
     width="2"
     height="2"
     id="rect296"
     style="fill:#ffffff;fill-opacity:1" /><rect
     x="52"
     y="22"
     width="2"
     height="2"
     id="rect298"
     style="fill:#ffffff;fill-opacity:1" /><rect
     x="52"
     y="26"
     width="2"
     height="2"
     id="rect300"
     style="fill:#ffffff;fill-opacity:1" /><rect
     x="13"
     y="21"
     width="2"
     height="2"
     id="rect302"
     style="fill:#ffffff;fill-opacity:1" /><rect
     x="11"
     y="19"
     width="2"
     height="2"
     id="rect304"
     style="fill:#ffffff;fill-opacity:1" /><rect
     x="9"
     y="21"
     width="2"
     height="2"
     id="rect306"
     style="fill:#ffffff;fill-opacity:1" /><rect
     x="11"
     y="23"
     width="2"
     height="2"
     id="rect308"
     style="fill:#ffffff;fill-opacity:1" /><rect
     x="5"
     y="21"
     width="2"
     height="2"
     id="rect310"
     style="fill:#ffffff;fill-opacity:1" /><rect
     x="2"
     y="8"
     width="2"
     height="2"
     id="rect312"
     style="fill:#ffffff;fill-opacity:1" /><rect
     x="6"
     y="8"
     width="2"
     height="2"
     id="rect314"
     style="fill:#ffffff;fill-opacity:1" /><rect
     x="4"
     y="6"
     width="2"
     height="2"
     id="rect316"
     style="fill:#ffffff;fill-opacity:1" /><rect
     x="4"
     y="10"
     width="2"
     height="2"
     id="rect318"
     style="fill:#ffffff;fill-opacity:1" /><rect
     x="16"
     y="2"
     width="2"
     height="2"
     id="rect320"
     style="fill:#ffffff;fill-opacity:1" /><path
     d="M53,47h-2.42L47,40.734V30c0-2.206-1.794-4-4-4V14v-1.001C43,6.626,38.374,2,32,2c-6.876,0-10.799,5.648-11,10.962  c0,0.013,0.007,0.025,0.007,0.038H21v13c-2.206,0-4,1.794-4,4v10.734L13.42,47H11c-1.654,0-3,1.346-3,3  c0,1.299,0.834,2.396,1.991,2.813C9.366,53.531,9,54.442,9,55.405c0,1.977,1.477,3.669,3.436,3.937l19.429,2.649  C31.91,61.997,31.955,62,32,62s0.09-0.003,0.135-0.009l19.429-2.649C53.523,59.074,55,57.382,55,55.405  c0-0.964-0.366-1.875-0.991-2.592C55.166,52.396,56,51.299,56,50C56,48.346,54.654,47,53,47z M45,30v11  c0,0.174,0.045,0.345,0.132,0.496l4,7C49.31,48.808,49.641,49,50,49h3c0.551,0,1,0.448,1,1s-0.449,1-1,1h-5.529l-6.365-7.705  l2.701-15.125C44.509,28.48,45,29.185,45,30z M25.684,30.948l6,2C31.787,32.982,31.893,33,32,33s0.213-0.018,0.316-0.052l6-2  C38.725,30.813,39,30.431,39,30v-2h2.719l-4.5,18H26.781l-4.5-18H25v2C25,30.431,25.275,30.813,25.684,30.948z M29.473,11.85  c0.001-0.001,0.002-0.001,0.003-0.002c0.308-0.167,0.612-0.341,0.91-0.526c0.065-0.04,0.129-0.082,0.194-0.123  c0.261-0.166,0.52-0.333,0.773-0.513c0.148-0.104,0.29-0.217,0.435-0.326c0.166-0.125,0.337-0.243,0.499-0.374  c0.029,0.099,0.078,0.19,0.111,0.288c0.089,0.257,0.176,0.516,0.294,0.759c0.013,0.027,0.031,0.05,0.044,0.076  c0.65,1.305,1.69,2.382,2.973,3.068c0.005,0.003,0.011,0.004,0.016,0.007c0.323,0.172,0.66,0.32,1.01,0.44  c0.102,0.035,0.212,0.05,0.316,0.08c0.259,0.075,0.516,0.154,0.786,0.199C38.215,14.967,38.604,15,39,15h0.443  c-0.889,2.387-2.754,4.408-4.841,5.38c-0.006,0.003-0.013,0.003-0.02,0.006c-0.436,0.201-0.863,0.351-1.285,0.452  c-0.01,0.002-0.019,0.005-0.029,0.008c-1.283,0.302-2.524,0.15-3.85-0.46c-0.036-0.017-0.074-0.023-0.111-0.035  c-2.438-1.16-4.51-3.743-5.12-6.63C26.039,13.376,27.82,12.744,29.473,11.85z M30,27v-4.277c0.304,0.081,0.61,0.145,0.918,0.189  c0.036,0.005,0.072,0.014,0.108,0.019C31.35,22.974,31.674,23,32,23c0.309,0,0.618-0.026,0.927-0.065  c0.077-0.01,0.154-0.026,0.231-0.038c0.251-0.04,0.5-0.091,0.749-0.155c0.031-0.008,0.062-0.011,0.094-0.019V27c0,0.553,0.448,1,1,1  h2v1.279l-5,1.667l-5-1.667V28h2C29.552,28,30,27.553,30,27z M32,53.987l-9.995-1.578L26.414,48h11.172l4.409,4.409L32,53.987z   M24.893,46.693l-5.569,5.569l-1.117-0.152l6.172-7.471L24.893,46.693z M44.676,52.262l-5.569-5.569l0.514-2.055l6.172,7.471  L44.676,52.262z M38,26h-2v-4.085c2.109-1.147,3.933-3.118,5-5.469V26H38z M32,4c5.299,0,9,3.7,9,8.999L39,13c-2.757,0-5-2.243-5-5  c0-0.404-0.244-0.77-0.617-0.924c-0.113-0.048-0.232-0.066-0.35-0.07C33.022,7.006,33.011,7,33,7c-0.02,0-0.038,0.01-0.057,0.011  c-0.09,0.005-0.178,0.022-0.263,0.052c-0.031,0.01-0.06,0.019-0.09,0.032c-0.108,0.049-0.21,0.111-0.297,0.198  c-2.468,2.469-5.721,4.08-9.176,4.565C23.759,7.86,26.879,4,32,4z M23,16.449c1.06,2.349,2.876,4.323,5,5.472V26h-2h-3V16.449z   M11,49h3c0.359,0,0.69-0.192,0.868-0.504l4-7C18.955,41.345,19,41.174,19,41V30c0-0.815,0.491-1.52,1.193-1.83l2.701,15.125  L16.529,51H11c-0.551,0-1-0.448-1-1S10.449,49,11,49z M32,59.991l-19.294-2.632C11.733,57.227,11,56.387,11,55.405  c0-0.569,0.246-1.111,0.675-1.485c0.362-0.316,0.823-0.487,1.297-0.487c0.088,0,0.177,0.006,0.266,0.019l18.415,2.511l5.353,3.346  L32,59.991z M51.294,57.359l-11.191,1.526l-5.229-3.268l15.886-2.167c0.567-0.082,1.134,0.094,1.564,0.469  C52.754,54.294,53,54.836,53,55.405C53,56.387,52.267,57.227,51.294,57.359z"
     id="path322"
     style="fill:#ffffff;fill-opacity:1" /></svg>