<svg xmlns="http://www.w3.org/2000/svg" xmlns:ns4="http://www.w3.org/1999/xlink" width="432" height="332.308" viewBox="0 0 324 249.231"><defs><style>*{stroke-linejoin:round;stroke-linecap:butt}</style></defs><g id="figure_1"><path d="M0 249.23h324V0H0z" style="fill:#ffffff" id="patch_1"/><g id="axes_1"><svg baseProfile="full" xml:space="preserve" width="114.136" height="191.908" viewBox="0 0 200 200" x="40.5" y="29.908" id="m1"><path style="opacity:1.0;fill:#FFFFFF;stroke:none" d="M0 0h200v200H0z"/><path class="bond-0 atom-0 atom-1" d="M9.1 126.2V73.8" style="fill:none;fill-rule:evenodd;stroke:#000000;stroke-width:2.0px;stroke-linecap:butt;stroke-linejoin:miter;stroke-opacity:1"/><path class="bond-1 atom-1 atom-2" d="m9.1 73.8 45.4-26.3" style="fill:none;fill-rule:evenodd;stroke:#000000;stroke-width:2.0px;stroke-linecap:butt;stroke-linejoin:miter;stroke-opacity:1"/><path class="bond-2 atom-2 atom-3" d="M54.5 47.5 100 73.8" style="fill:none;fill-rule:evenodd;stroke:#000000;stroke-width:2.0px;stroke-linecap:butt;stroke-linejoin:miter;stroke-opacity:1"/><path class="bond-3 atom-3 atom-4" d="m100 73.8 45.5-26.3" style="fill:none;fill-rule:evenodd;stroke:#000000;stroke-width:2.0px;stroke-linecap:butt;stroke-linejoin:miter;stroke-opacity:1"/><path class="bond-4 atom-4 atom-5" d="m145.5 47.5 45.4 26.3" style="fill:none;fill-rule:evenodd;stroke:#000000;stroke-width:2.0px;stroke-linecap:butt;stroke-linejoin:miter;stroke-opacity:1"/><path class="bond-5 atom-5 atom-6" d="M190.9 73.8v52.4" style="fill:none;fill-rule:evenodd;stroke:#000000;stroke-width:2.0px;stroke-linecap:butt;stroke-linejoin:miter;stroke-opacity:1"/><path class="bond-6 atom-6 atom-7" d="m190.9 126.2-45.4 26.3" style="fill:none;fill-rule:evenodd;stroke:#000000;stroke-width:2.0px;stroke-linecap:butt;stroke-linejoin:miter;stroke-opacity:1"/><path class="bond-7 atom-7 atom-8" d="M145.5 152.5 100 126.2" style="fill:none;fill-rule:evenodd;stroke:#000000;stroke-width:2.0px;stroke-linecap:butt;stroke-linejoin:miter;stroke-opacity:1"/><path class="bond-8 atom-8 atom-9" d="m100 126.2-45.5 26.3" style="fill:none;fill-rule:evenodd;stroke:#000000;stroke-width:2.0px;stroke-linecap:butt;stroke-linejoin:miter;stroke-opacity:1"/><path class="bond-9 atom-9 atom-0" d="M54.5 152.5 9.1 126.2" style="fill:none;fill-rule:evenodd;stroke:#000000;stroke-width:2.0px;stroke-linecap:butt;stroke-linejoin:miter;stroke-opacity:1"/><path class="bond-10 atom-8 atom-3" d="M100 126.2V73.8" style="fill:none;fill-rule:evenodd;stroke:#000000;stroke-width:2.0px;stroke-linecap:butt;stroke-linejoin:miter;stroke-opacity:1"/><path d="M9.1 123.6v2.6l2.3 1.4M9.1 76.4v-2.6l2.3-1.4M52.3 48.8l2.2-1.3 2.3 1.3M143.2 48.8l2.3-1.3 2.2 1.3M188.6 72.4l2.3 1.4v2.6M190.9 123.6v2.6l-2.3 1.4M147.7 151.2l-2.2 1.3-2.3-1.3M56.8 151.2l-2.3 1.3-2.2-1.3" style="fill:none;stroke:#000000;stroke-width:2.0px;stroke-linecap:butt;stroke-linejoin:miter;stroke-opacity:1"/></svg><g transform="matrix(.168 0 0 -.168 57.27 23.908)" id="text_1"><defs><path id="CourierPrime-Regular-64" d="M3009 4100q107 0 152-49 45-48 45-163V425h257q106 0 151-49 45-48 45-163 0-116-45-165-45-48-151-48h-497q-107 0-152 48-45 49-45 165v250q-197-257-457-395-259-137-565-137-388 0-694 183T572 639q-175 342-175 805 0 462 175 804 175 343 481 525 306 183 694 183 587 0 991-515v1234h-507q-106 0-152 48-45 49-45 165 0 115 45 163 46 49 152 49h778zM1778 2494q-278 0-478-133t-305-371q-104-237-104-546 0-310 104-548 105-237 305-370 200-132 478-132t495 125q218 125 341 362 124 238 124 563t-124 562q-123 238-341 363-217 125-495 125z" transform="scale(.01563)"/><path id="CourierPrime-Regular-65" d="M1947 2956q453 0 773-183 321-182 492-506 172-323 197-745 0-106-45-150t-151-44H950q22-465 276-705 255-239 721-239 287 0 568 73 282 74 494 196 54 28 97 28 110 0 178-165 29-66 29-119 0-125-138-194Q2934 81 2606 6t-659-75q-472 0-807 181-334 182-509 522-175 341-175 810 0 447 191 790 191 344 528 533 338 189 772 189zm0-453q-384 0-636-195t-330-542h1910q-66 359-302 548t-642 189z" transform="scale(.01563)"/><path id="CourierPrime-Regular-63" d="M3044 2956q128 0 181-47 53-46 53-156v-906q0-109-53-156t-181-47q-128 0-182 47-53 47-53 156 0 191-100 337-100 147-298 228-198 82-477 82-300 0-538-135-237-134-371-375-134-240-134-540 0-303 126-542 127-239 356-374 230-134 530-134 288 0 558 89t492 258q66 50 122 50 91 0 169-128 47-79 47-150 0-110-100-182-250-187-591-294-341-106-697-106-447 0-789 197T584 669q-187 344-187 775t190 775q191 344 533 540 343 197 783 197 278 0 511-102 233-101 395-288v187q0 110 53 156 54 47 182 47z" transform="scale(.01563)"/><path id="CourierPrime-Regular-61" d="M1931 2956q588 0 881-263 294-262 294-777V672q0-247 207-247h109q106 0 151-49 46-48 46-163 0-116-46-165-45-48-151-48h-200q-203 0-349 101-145 102-189 299-256-225-555-347-298-122-632-122-316 0-558 108T559 353Q422 559 422 844q0 494 353 729 353 236 913 236 496 0 950-159v266q0 303-171 445-170 142-548 142-235 0-488-66-253-65-481-181-53-28-97-28-103 0-172 150-34 75-34 125 0 110 116 169 262 137 563 210 302 74 605 74zm-240-1587q-360 0-568-124-207-123-207-392 0-228 157-355 158-126 443-126 622 0 1122 516v340q-213 69-457 105-243 36-490 36z" transform="scale(.01563)"/><path id="CourierPrime-Regular-6c" d="M2000 4100q106 0 151-49 46-48 46-163V425h1003q106 0 151-49 46-48 46-163 0-116-46-165-45-48-151-48H750Q644 0 598 48q-45 49-45 165 0 115 45 163 46 49 152 49h978v3250H875q-106 0-152 48-45 49-45 165 0 115 45 163 46 49 152 49h1125z" transform="scale(.01563)"/><path id="CourierPrime-Regular-69" d="M2031 2888q107 0 152-49 45-48 45-164V425h1003q107 0 152-49 45-48 45-163 0-116-45-165-45-48-152-48H781Q675 0 629 48q-45 49-45 165 0 115 45 163 46 49 152 49h978v2038H969q-106 0-152 48-45 48-45 164t45 164q46 49 152 49h1062zm-100 1371q172 0 234-45 63-45 63-158v-406q0-112-63-158-62-45-234-45t-235 45q-62 46-62 158v406q0 113 62 158 63 45 235 45z" transform="scale(.01563)"/><path id="CourierPrime-Regular-6e" d="M2272 2956q284 0 493-124 210-123 322-354 113-231 113-540V425h256q107 0 152-49 45-48 45-163 0-116-45-165-45-48-152-48H2444q-106 0-152 48-45 49-45 165 0 115 45 163 46 49 152 49h287v1466q0 278-128 440-128 163-378 163-266 0-496-153-229-153-367-422-137-269-137-600V425h288q106 0 151-49 45-48 45-163 0-116-45-165-45-48-151-48H500Q394 0 348 48q-45 49-45 165 0 115 45 163 46 49 152 49h256v2038H438q-107 0-152 48t-45 164q0 116 45 164 45 49 152 49h559q106 0 151-49 46-48 46-164v-375q206 319 482 487 277 169 596 169z" transform="scale(.01563)"/></defs><use ns4:href="#CourierPrime-Regular-64"/><use ns4:href="#CourierPrime-Regular-65" x="59.961"/><use ns4:href="#CourierPrime-Regular-63" x="119.922"/><use ns4:href="#CourierPrime-Regular-61" x="179.883"/><use ns4:href="#CourierPrime-Regular-6c" x="239.844"/><use ns4:href="#CourierPrime-Regular-69" x="299.805"/><use ns4:href="#CourierPrime-Regular-6e" x="359.766"/><use ns4:href="#CourierPrime-Regular-65" x="419.727"/></g></g><g id="axes_2"><svg baseProfile="full" xml:space="preserve" width="114.136" height="191.908" viewBox="0 0 200 200" x="177.464" y="29.908" id="m2"><path style="opacity:1.0;fill:#FFFFFF;stroke:none" d="M0 0h200v200H0z"/><path class="bond-0 atom-0 atom-1" d="M190.9 122.3V77.7" style="fill:none;fill-rule:evenodd;stroke:#000000;stroke-width:2.0px;stroke-linecap:butt;stroke-linejoin:miter;stroke-opacity:1"/><path class="bond-1 atom-1 atom-2" d="m190.9 77.7-42.4-13.8" style="fill:none;fill-rule:evenodd;stroke:#000000;stroke-width:2.0px;stroke-linecap:butt;stroke-linejoin:miter;stroke-opacity:1"/><path class="bond-2 atom-2 atom-3" d="M148.5 63.9 122.3 100" style="fill:none;fill-rule:evenodd;stroke:#000000;stroke-width:2.0px;stroke-linecap:butt;stroke-linejoin:miter;stroke-opacity:1"/><path class="bond-3 atom-3 atom-4" d="m122.3 100 26.2 36.1" style="fill:none;fill-rule:evenodd;stroke:#000000;stroke-width:2.0px;stroke-linecap:butt;stroke-linejoin:miter;stroke-opacity:1"/><path class="bond-4 atom-3 atom-5" d="M122.3 100H77.7" style="fill:none;fill-rule:evenodd;stroke:#000000;stroke-width:2.0px;stroke-linecap:butt;stroke-linejoin:miter;stroke-opacity:1"/><path class="bond-5 atom-5 atom-6" d="m77.7 100-26.2 36.1" style="fill:none;fill-rule:evenodd;stroke:#000000;stroke-width:2.0px;stroke-linecap:butt;stroke-linejoin:miter;stroke-opacity:1"/><path class="bond-6 atom-6 atom-7" d="M51.5 136.1 9.1 122.3" style="fill:none;fill-rule:evenodd;stroke:#000000;stroke-width:2.0px;stroke-linecap:butt;stroke-linejoin:miter;stroke-opacity:1"/><path class="bond-7 atom-7 atom-8" d="M9.1 122.3V77.7" style="fill:none;fill-rule:evenodd;stroke:#000000;stroke-width:2.0px;stroke-linecap:butt;stroke-linejoin:miter;stroke-opacity:1"/><path class="bond-8 atom-8 atom-9" d="m9.1 77.7 42.4-13.8" style="fill:none;fill-rule:evenodd;stroke:#000000;stroke-width:2.0px;stroke-linecap:butt;stroke-linejoin:miter;stroke-opacity:1"/><path class="bond-9 atom-4 atom-0" d="m148.5 136.1 42.4-13.8" style="fill:none;fill-rule:evenodd;stroke:#000000;stroke-width:2.0px;stroke-linecap:butt;stroke-linejoin:miter;stroke-opacity:1"/><path class="bond-10 atom-9 atom-5" d="M51.5 63.9 77.7 100" style="fill:none;fill-rule:evenodd;stroke:#000000;stroke-width:2.0px;stroke-linecap:butt;stroke-linejoin:miter;stroke-opacity:1"/><path d="M190.9 120.1v2.2l-2.1.7M190.9 79.9v-2.2l-2.1-.7M150.6 64.6l-2.1-.7-1.3 1.8M147.2 134.3l1.3 1.8 2.1-.7M52.8 134.3l-1.3 1.8-2.1-.7M11.2 123l-2.1-.7v-2.2M9.1 79.9v-2.2l2.1-.7M49.4 64.6l2.1-.7 1.3 1.8" style="fill:none;stroke:#000000;stroke-width:2.0px;stroke-linecap:butt;stroke-linejoin:miter;stroke-opacity:1"/></svg><g transform="matrix(.168 0 0 -.168 174.083 23.908)" id="text_2"><defs><path id="CourierPrime-Regular-62" d="M903 4100q106 0 151-49 46-48 46-163V2441q403 515 991 515 387 0 693-183 307-182 482-525 175-342 175-804 0-463-175-805t-482-525Q2478-69 2091-69q-307 0-566 137-259 138-456 395V213q0-116-46-165Q978 0 872 0H375Q269 0 223 48q-45 49-45 165 0 115 45 163 46 49 152 49h256v3250H313q-107 0-152 48-45 49-45 165 0 115 45 163 45 49 152 49h590zm1156-1606q-278 0-495-125t-341-363q-123-237-123-562t123-563q124-237 341-362t495-125q279 0 479 132 200 133 304 370 105 238 105 548 0 309-105 546-104 238-304 371t-479 133z" transform="scale(.01563)"/><path id="CourierPrime-Regular-79" d="M3484 2888q107 0 152-49 45-48 45-164t-45-164q-45-48-152-48h-193L2013-156q-204-416-398-653-193-238-435-349t-589-123q-110-3-169 55-59 57-59 204 0 203 165 213 300 15 476 100 177 84 325 289 149 204 365 639L550 2463H353q-106 0-152 48-45 48-45 164t45 164q46 49 152 49h1106q107 0 152-49 45-48 45-164t-45-164q-45-48-152-48h-400l882-1757 840 1757h-278q-106 0-152 48-45 48-45 164t45 164q46 49 152 49h981z" transform="scale(.01563)"/><path id="CourierPrime-Regular-6f" d="M1919 2956q428 0 771-194 344-193 539-539 196-345 196-779 0-435-196-780-195-345-539-539-343-194-771-194t-772 194Q803 319 608 664t-195 780q0 434 195 779 195 346 539 539 344 194 772 194zm0-462q-303 0-533-133t-355-372q-125-239-125-545t125-546q125-239 355-372 230-132 533-132t532 132q230 133 355 372 125 240 125 546t-125 545q-125 239-355 372-229 133-532 133z" transform="scale(.01563)"/><path id="CourierPrime-Regular-70" d="M2091 2956q387 0 693-183 307-182 482-525 175-342 175-804 0-463-175-805t-482-525Q2478-69 2091-69q-588 0-991 516V-788h538q106 0 151-48t45-164q0-116-45-164-45-49-151-49H313q-107 0-152 49-45 48-45 164t45 164q45 48 152 48h318v3251H375q-106 0-152 48-45 48-45 164t45 164q46 49 152 49h497q106 0 151-49 46-48 46-164v-250q197 256 456 393 259 138 566 138zm-32-462q-278 0-495-125t-341-363q-123-237-123-562t123-563q124-237 341-362t495-125q279 0 479 132 200 133 304 370 105 238 105 548 0 309-105 546-104 238-304 371t-479 133z" transform="scale(.01563)"/><path id="CourierPrime-Regular-74" d="M1431 3778q128 0 181-47 54-47 54-156v-937h1284q106 0 151-49 46-48 46-164t-46-164q-45-48-151-48H1666V1075q0-356 123-522 124-165 430-165 209 0 440 84 232 84 447 225 44 31 97 31 106 0 181-144 41-81 41-140 0-100-103-163-244-153-544-252-300-98-559-98-531 0-777 276-245 277-245 827v1179H563q-107 0-152 48t-45 164q0 116 45 164 45 49 152 49h634v937q0 109 53 156t181 47z" transform="scale(.01563)"/></defs><use ns4:href="#CourierPrime-Regular-62"/><use ns4:href="#CourierPrime-Regular-69" x="59.961"/><use ns4:href="#CourierPrime-Regular-63" x="119.922"/><use ns4:href="#CourierPrime-Regular-79" x="179.883"/><use ns4:href="#CourierPrime-Regular-6c" x="239.844"/><use ns4:href="#CourierPrime-Regular-6f" x="299.805"/><use ns4:href="#CourierPrime-Regular-70" x="359.766"/><use ns4:href="#CourierPrime-Regular-65" x="419.727"/><use ns4:href="#CourierPrime-Regular-6e" x="479.688"/><use ns4:href="#CourierPrime-Regular-74" x="539.648"/><use ns4:href="#CourierPrime-Regular-79" x="599.609"/><use ns4:href="#CourierPrime-Regular-6c" x="659.57"/></g></g></g><defs><clipPath id="p81178f6cb1"><path d="M40.5 29.908h114.136v191.908H40.5z"/></clipPath><clipPath id="pd76b376a8c"><path d="M177.464 29.908H291.6v191.908H177.464z"/></clipPath></defs></svg>