<?xml version="1.0" encoding="UTF-8" standalone="no"?>
<!-- Created with Inkscape (http://www.inkscape.org/) -->

<svg
   xmlns:dc="http://purl.org/dc/elements/1.1/"
   xmlns:cc="http://creativecommons.org/ns#"
   xmlns:rdf="http://www.w3.org/1999/02/22-rdf-syntax-ns#"
   xmlns:svg="http://www.w3.org/2000/svg"
   xmlns="http://www.w3.org/2000/svg"
   xmlns:sodipodi="http://sodipodi.sourceforge.net/DTD/sodipodi-0.dtd"
   xmlns:inkscape="http://www.inkscape.org/namespaces/inkscape"
   width="101.6mm"
   height="76.199997mm"
   viewBox="0 0 101.6 76.199997"
   version="1.1"
   id="svg5031"
   inkscape:version="0.92.3 (2405546, 2018-03-11)"
   sodipodi:docname="rdf.svg">
  <defs
     id="defs5025">
    <clipPath
       id="clipPath5175"
       clipPathUnits="userSpaceOnUse">
      <path
         inkscape:connector-curvature="0"
         id="path5173"
         d="M 50.69,45.0425 H 274.005 V 201.24 H 50.69 Z" />
    </clipPath>
    <clipPath
       id="clipPath5185"
       clipPathUnits="userSpaceOnUse">
      <path
         inkscape:connector-curvature="0"
         id="path5183"
         d="M 50.69,45.0425 H 274.005 V 201.24 H 50.69 Z" />
    </clipPath>
  </defs>
  <sodipodi:namedview
     id="base"
     pagecolor="#ffffff"
     bordercolor="#666666"
     borderopacity="1.0"
     inkscape:pageopacity="0.0"
     inkscape:pageshadow="2"
     inkscape:zoom="1"
     inkscape:cx="460.57142"
     inkscape:cy="195.42859"
     inkscape:document-units="mm"
     inkscape:current-layer="layer1"
     showgrid="false"
     fit-margin-top="0"
     fit-margin-left="0"
     fit-margin-right="0"
     fit-margin-bottom="0"
     inkscape:window-width="1920"
     inkscape:window-height="1017"
     inkscape:window-x="-8"
     inkscape:window-y="-8"
     inkscape:window-maximized="1" />
  <metadata
     id="metadata5028">
    <rdf:RDF>
      <cc:Work
         rdf:about="">
        <dc:format>image/svg+xml</dc:format>
        <dc:type
           rdf:resource="http://purl.org/dc/dcmitype/StillImage" />
        <dc:title></dc:title>
      </cc:Work>
    </rdf:RDF>
  </metadata>
  <g
     inkscape:label="Layer 1"
     inkscape:groupmode="layer"
     id="layer1"
     transform="translate(16.026189,-124.34048)">
    <g
       transform="matrix(0.35277777,0,0,-0.35277777,-16.026189,200.54048)"
       inkscape:label="inf-rdf"
       id="g5041">
      <path
         inkscape:connector-curvature="0"
         id="path5043"
         style="fill:#ffffff;fill-opacity:1;fill-rule:nonzero;stroke:none"
         d="M 0,0 H 288 V 216 H 0 Z" />
      <path
         inkscape:connector-curvature="0"
         id="path5045"
         style="fill:#ffffff;fill-opacity:1;fill-rule:nonzero;stroke:none"
         d="M 50.69,45.0425 H 274.005 V 201.24 H 50.69 Z" />
      <path
         inkscape:connector-curvature="0"
         id="path5047"
         style="fill:#000000;fill-opacity:1;fill-rule:nonzero;stroke:#000000;stroke-width:0.80000001;stroke-linecap:butt;stroke-linejoin:round;stroke-miterlimit:10;stroke-dasharray:none;stroke-opacity:1"
         d="m 50.69,45.0425 v -3.5" />
      <text
         id="text5051"
         style="font-variant:normal;font-weight:normal;font-size:10px;font-family:DejaVuSans;-inkscape-font-specification:DejaVuSans;writing-mode:lr-tb;fill:#000000;fill-opacity:1;fill-rule:nonzero;stroke:none"
         transform="matrix(1,0,0,-1,47.510313,30.44875)">
        <tspan
           id="tspan5049"
           y="0"
           x="0">2</tspan>
      </text>
      <path
         inkscape:connector-curvature="0"
         id="path5053"
         style="fill:#000000;fill-opacity:1;fill-rule:nonzero;stroke:#000000;stroke-width:0.80000001;stroke-linecap:butt;stroke-linejoin:round;stroke-miterlimit:10;stroke-dasharray:none;stroke-opacity:1"
         d="m 82.592143,45.0425 v -3.5" />
      <text
         id="text5057"
         style="font-variant:normal;font-weight:normal;font-size:10px;font-family:DejaVuSans;-inkscape-font-specification:DejaVuSans;writing-mode:lr-tb;fill:#000000;fill-opacity:1;fill-rule:nonzero;stroke:none"
         transform="matrix(1,0,0,-1,79.412455,30.44875)">
        <tspan
           id="tspan5055"
           y="0"
           x="0">3</tspan>
      </text>
      <path
         inkscape:connector-curvature="0"
         id="path5059"
         style="fill:#000000;fill-opacity:1;fill-rule:nonzero;stroke:#000000;stroke-width:0.80000001;stroke-linecap:butt;stroke-linejoin:round;stroke-miterlimit:10;stroke-dasharray:none;stroke-opacity:1"
         d="m 114.49429,45.0425 v -3.5" />
      <text
         id="text5063"
         style="font-variant:normal;font-weight:normal;font-size:10px;font-family:DejaVuSans;-inkscape-font-specification:DejaVuSans;writing-mode:lr-tb;fill:#000000;fill-opacity:1;fill-rule:nonzero;stroke:none"
         transform="matrix(1,0,0,-1,111.3146,30.44875)">
        <tspan
           id="tspan5061"
           y="0"
           x="0">4</tspan>
      </text>
      <path
         inkscape:connector-curvature="0"
         id="path5065"
         style="fill:#000000;fill-opacity:1;fill-rule:nonzero;stroke:#000000;stroke-width:0.80000001;stroke-linecap:butt;stroke-linejoin:round;stroke-miterlimit:10;stroke-dasharray:none;stroke-opacity:1"
         d="m 146.39643,45.0425 v -3.5" />
      <text
         id="text5069"
         style="font-variant:normal;font-weight:normal;font-size:10px;font-family:DejaVuSans;-inkscape-font-specification:DejaVuSans;writing-mode:lr-tb;fill:#000000;fill-opacity:1;fill-rule:nonzero;stroke:none"
         transform="matrix(1,0,0,-1,143.21674,30.44875)">
        <tspan
           id="tspan5067"
           y="0"
           x="0">5</tspan>
      </text>
      <path
         inkscape:connector-curvature="0"
         id="path5071"
         style="fill:#000000;fill-opacity:1;fill-rule:nonzero;stroke:#000000;stroke-width:0.80000001;stroke-linecap:butt;stroke-linejoin:round;stroke-miterlimit:10;stroke-dasharray:none;stroke-opacity:1"
         d="m 178.29857,45.0425 v -3.5" />
      <text
         id="text5075"
         style="font-variant:normal;font-weight:normal;font-size:10px;font-family:DejaVuSans;-inkscape-font-specification:DejaVuSans;writing-mode:lr-tb;fill:#000000;fill-opacity:1;fill-rule:nonzero;stroke:none"
         transform="matrix(1,0,0,-1,175.11888,30.44875)">
        <tspan
           id="tspan5073"
           y="0"
           x="0">6</tspan>
      </text>
      <path
         inkscape:connector-curvature="0"
         id="path5077"
         style="fill:#000000;fill-opacity:1;fill-rule:nonzero;stroke:#000000;stroke-width:0.80000001;stroke-linecap:butt;stroke-linejoin:round;stroke-miterlimit:10;stroke-dasharray:none;stroke-opacity:1"
         d="m 210.20071,45.0425 v -3.5" />
      <text
         id="text5081"
         style="font-variant:normal;font-weight:normal;font-size:10px;font-family:DejaVuSans;-inkscape-font-specification:DejaVuSans;writing-mode:lr-tb;fill:#000000;fill-opacity:1;fill-rule:nonzero;stroke:none"
         transform="matrix(1,0,0,-1,207.02103,30.44875)">
        <tspan
           id="tspan5079"
           y="0"
           x="0">7</tspan>
      </text>
      <path
         inkscape:connector-curvature="0"
         id="path5083"
         style="fill:#000000;fill-opacity:1;fill-rule:nonzero;stroke:#000000;stroke-width:0.80000001;stroke-linecap:butt;stroke-linejoin:round;stroke-miterlimit:10;stroke-dasharray:none;stroke-opacity:1"
         d="m 242.10286,45.0425 v -3.5" />
      <text
         id="text5087"
         style="font-variant:normal;font-weight:normal;font-size:10px;font-family:DejaVuSans;-inkscape-font-specification:DejaVuSans;writing-mode:lr-tb;fill:#000000;fill-opacity:1;fill-rule:nonzero;stroke:none"
         transform="matrix(1,0,0,-1,238.92317,30.44875)">
        <tspan
           id="tspan5085"
           y="0"
           x="0">8</tspan>
      </text>
      <path
         inkscape:connector-curvature="0"
         id="path5089"
         style="fill:#000000;fill-opacity:1;fill-rule:nonzero;stroke:#000000;stroke-width:0.80000001;stroke-linecap:butt;stroke-linejoin:round;stroke-miterlimit:10;stroke-dasharray:none;stroke-opacity:1"
         d="m 274.005,45.0425 v -3.5" />
      <text
         id="text5093"
         style="font-variant:normal;font-weight:normal;font-size:10px;font-family:DejaVuSans;-inkscape-font-specification:DejaVuSans;writing-mode:lr-tb;fill:#000000;fill-opacity:1;fill-rule:nonzero;stroke:none"
         transform="matrix(1,0,0,-1,270.82531,30.44875)">
        <tspan
           id="tspan5091"
           y="0"
           x="0">9</tspan>
      </text>
      <g
         transform="translate(151.3475,14.44875)"
         id="g5095">
        <text
           id="text5099"
           style="font-variant:normal;font-weight:normal;font-size:10px;font-family:DejaVuSans;-inkscape-font-specification:DejaVuSans;writing-mode:lr-tb;fill:#000000;fill-opacity:1;fill-rule:nonzero;stroke:none"
           transform="matrix(1,0,0,-1,0,0.71875)">
          <tspan
             id="tspan5097"
             sodipodi:role="line"
             y="0"
             x="0 4.1113281 7.2900391">r [</tspan>
        </text>
        <text
           id="text5103"
           style="font-style:italic;font-variant:normal;font-size:10px;font-family:DejaVuSans;-inkscape-font-specification:DejaVuSans-Oblique;writing-mode:lr-tb;fill:#000000;fill-opacity:1;fill-rule:nonzero;stroke:none"
           transform="matrix(1,0,0,-1,11.191406,0.71875)">
          <tspan
             id="tspan5101"
             y="0"
             x="0">Å</tspan>
        </text>
        <text
           id="text5107"
           style="font-variant:normal;font-weight:normal;font-size:10px;font-family:DejaVuSans;-inkscape-font-specification:DejaVuSans;writing-mode:lr-tb;fill:#000000;fill-opacity:1;fill-rule:nonzero;stroke:none"
           transform="matrix(1,0,0,-1,18.032227,0.71875)">
          <tspan
             id="tspan5105"
             y="0"
             x="0">]</tspan>
        </text>
      </g>
      <path
         inkscape:connector-curvature="0"
         id="path5109"
         style="fill:#000000;fill-opacity:1;fill-rule:nonzero;stroke:#000000;stroke-width:0.80000001;stroke-linecap:butt;stroke-linejoin:round;stroke-miterlimit:10;stroke-dasharray:none;stroke-opacity:1"
         d="m 50.69,45.0425 h -3.5" />
      <text
         id="text5113"
         style="font-variant:normal;font-weight:normal;font-size:10px;font-family:DejaVuSans;-inkscape-font-specification:DejaVuSans;writing-mode:lr-tb;fill:#000000;fill-opacity:1;fill-rule:nonzero;stroke:none"
         transform="matrix(1,0,0,-1,27.78375,41.245625)">
        <tspan
           id="tspan5111"
           sodipodi:role="line"
           y="0"
           x="0 6.3600001 9.54">0.0</tspan>
      </text>
      <path
         inkscape:connector-curvature="0"
         id="path5115"
         style="fill:#000000;fill-opacity:1;fill-rule:nonzero;stroke:#000000;stroke-width:0.80000001;stroke-linecap:butt;stroke-linejoin:round;stroke-miterlimit:10;stroke-dasharray:none;stroke-opacity:1"
         d="m 50.69,71.075417 h -3.5" />
      <text
         id="text5119"
         style="font-variant:normal;font-weight:normal;font-size:10px;font-family:DejaVuSans;-inkscape-font-specification:DejaVuSans;writing-mode:lr-tb;fill:#000000;fill-opacity:1;fill-rule:nonzero;stroke:none"
         transform="matrix(1,0,0,-1,27.78375,67.278542)">
        <tspan
           id="tspan5117"
           sodipodi:role="line"
           y="0"
           x="0 6.3600001 9.54">0.5</tspan>
      </text>
      <path
         inkscape:connector-curvature="0"
         id="path5121"
         style="fill:#000000;fill-opacity:1;fill-rule:nonzero;stroke:#000000;stroke-width:0.80000001;stroke-linecap:butt;stroke-linejoin:round;stroke-miterlimit:10;stroke-dasharray:none;stroke-opacity:1"
         d="m 50.69,97.108333 h -3.5" />
      <text
         id="text5125"
         style="font-variant:normal;font-weight:normal;font-size:10px;font-family:DejaVuSans;-inkscape-font-specification:DejaVuSans;writing-mode:lr-tb;fill:#000000;fill-opacity:1;fill-rule:nonzero;stroke:none"
         transform="matrix(1,0,0,-1,27.78375,93.311458)">
        <tspan
           id="tspan5123"
           sodipodi:role="line"
           y="0"
           x="0 6.3600001 9.54">1.0</tspan>
      </text>
      <path
         inkscape:connector-curvature="0"
         id="path5127"
         style="fill:#000000;fill-opacity:1;fill-rule:nonzero;stroke:#000000;stroke-width:0.80000001;stroke-linecap:butt;stroke-linejoin:round;stroke-miterlimit:10;stroke-dasharray:none;stroke-opacity:1"
         d="m 50.69,123.14125 h -3.5" />
      <text
         id="text5131"
         style="font-variant:normal;font-weight:normal;font-size:10px;font-family:DejaVuSans;-inkscape-font-specification:DejaVuSans;writing-mode:lr-tb;fill:#000000;fill-opacity:1;fill-rule:nonzero;stroke:none"
         transform="matrix(1,0,0,-1,27.78375,119.34438)">
        <tspan
           id="tspan5129"
           sodipodi:role="line"
           y="0"
           x="0 6.3600001 9.54">1.5</tspan>
      </text>
      <path
         inkscape:connector-curvature="0"
         id="path5133"
         style="fill:#000000;fill-opacity:1;fill-rule:nonzero;stroke:#000000;stroke-width:0.80000001;stroke-linecap:butt;stroke-linejoin:round;stroke-miterlimit:10;stroke-dasharray:none;stroke-opacity:1"
         d="m 50.69,149.17417 h -3.5" />
      <text
         id="text5137"
         style="font-variant:normal;font-weight:normal;font-size:10px;font-family:DejaVuSans;-inkscape-font-specification:DejaVuSans;writing-mode:lr-tb;fill:#000000;fill-opacity:1;fill-rule:nonzero;stroke:none"
         transform="matrix(1,0,0,-1,27.78375,145.37729)">
        <tspan
           id="tspan5135"
           sodipodi:role="line"
           y="0"
           x="0 6.3600001 9.54">2.0</tspan>
      </text>
      <path
         inkscape:connector-curvature="0"
         id="path5139"
         style="fill:#000000;fill-opacity:1;fill-rule:nonzero;stroke:#000000;stroke-width:0.80000001;stroke-linecap:butt;stroke-linejoin:round;stroke-miterlimit:10;stroke-dasharray:none;stroke-opacity:1"
         d="m 50.69,175.20708 h -3.5" />
      <text
         id="text5143"
         style="font-variant:normal;font-weight:normal;font-size:10px;font-family:DejaVuSans;-inkscape-font-specification:DejaVuSans;writing-mode:lr-tb;fill:#000000;fill-opacity:1;fill-rule:nonzero;stroke:none"
         transform="matrix(1,0,0,-1,27.78375,171.41021)">
        <tspan
           id="tspan5141"
           sodipodi:role="line"
           y="0"
           x="0 6.3600001 9.54">2.5</tspan>
      </text>
      <path
         inkscape:connector-curvature="0"
         id="path5145"
         style="fill:#000000;fill-opacity:1;fill-rule:nonzero;stroke:#000000;stroke-width:0.80000001;stroke-linecap:butt;stroke-linejoin:round;stroke-miterlimit:10;stroke-dasharray:none;stroke-opacity:1"
         d="m 50.69,201.24 h -3.5" />
      <text
         id="text5149"
         style="font-variant:normal;font-weight:normal;font-size:10px;font-family:DejaVuSans;-inkscape-font-specification:DejaVuSans;writing-mode:lr-tb;fill:#000000;fill-opacity:1;fill-rule:nonzero;stroke:none"
         transform="matrix(1,0,0,-1,27.78375,197.44312)">
        <tspan
           id="tspan5147"
           sodipodi:role="line"
           y="0"
           x="0 6.3600001 9.54">3.0</tspan>
      </text>
      <g
         transform="rotate(90,-46.42875,67.2125)"
         id="g5151">
        <text
           id="text5155"
           style="font-style:italic;font-variant:normal;font-size:10px;font-family:DejaVuSans;-inkscape-font-specification:DejaVuSans-Oblique;writing-mode:lr-tb;fill:#000000;fill-opacity:1;fill-rule:nonzero;stroke:none"
           transform="matrix(1,0,0,-1,0,0.40625)">
          <tspan
             id="tspan5153"
             y="0"
             x="0">g</tspan>
        </text>
        <text
           id="text5159"
           style="font-variant:normal;font-weight:normal;font-size:10px;font-family:DejaVuSans;-inkscape-font-specification:DejaVuSans;writing-mode:lr-tb;fill:#000000;fill-opacity:1;fill-rule:nonzero;stroke:none"
           transform="matrix(1,0,0,-1,6.3476562,0.40625)">
          <tspan
             id="tspan5157"
             y="0"
             x="0">(</tspan>
        </text>
        <text
           id="text5163"
           style="font-style:italic;font-variant:normal;font-size:10px;font-family:DejaVuSans;-inkscape-font-specification:DejaVuSans-Oblique;writing-mode:lr-tb;fill:#000000;fill-opacity:1;fill-rule:nonzero;stroke:none"
           transform="matrix(1,0,0,-1,10.249023,0.40625)">
          <tspan
             id="tspan5161"
             y="0"
             x="0">r</tspan>
        </text>
        <text
           id="text5167"
           style="font-variant:normal;font-weight:normal;font-size:10px;font-family:DejaVuSans;-inkscape-font-specification:DejaVuSans;writing-mode:lr-tb;fill:#000000;fill-opacity:1;fill-rule:nonzero;stroke:none"
           transform="matrix(1,0,0,-1,14.360352,0.40625)">
          <tspan
             id="tspan5165"
             y="0"
             x="0">)</tspan>
        </text>
      </g>
      <g
         id="g5169">
        <g
           clip-path="url(#clipPath5175)"
           id="g5171">
          <path
             inkscape:connector-curvature="0"
             id="path5177"
             style="fill:none;stroke:#4878cf;stroke-width:1.5;stroke-linecap:square;stroke-linejoin:round;stroke-miterlimit:10;stroke-dasharray:none;stroke-opacity:1"
             d="m -1,45.0425 75.560779,0.02268 1.579155,0.108046 1.579156,0.478682 1.579156,1.68327 1.579155,3.767874 1.579156,7.286394 1.579156,10.523536 4.737467,40.196548 1.579156,10.41959 1.579155,5.88458 1.579156,2.93562 1.579156,-0.60882 1.579156,-1.73428 1.579155,-3.67072 1.579156,-7.22838 3.15831,-12.87674 1.57916,-5.485412 1.57915,-3.53667 1.57916,-2.433715 1.57916,0.137957 1.57916,1.090119 1.57915,2.940668 1.57916,3.581045 3.15832,8.710418 3.15831,7.28048 1.57914,2.32037 1.57917,1.54068 1.57914,1.04585 1.57917,0.88662 1.57914,1.46169 1.57917,-0.43378 1.57914,-0.25213 1.57917,0.46302 1.57914,-1.00805 1.57918,-0.32595 3.15831,-3.79019 3.15831,-2.27815 1.57914,-1.65484 1.57917,-2.36736 1.57914,-1.95671 1.57917,-2.17287 1.57914,-1.49452 1.57917,-1.76399 1.57914,-0.90817 1.57917,-1.45437 1.57914,-1.757541 1.57918,-0.693205 4.73748,-3.137282 1.57914,-0.404214 1.57917,-0.750179 3.15831,-0.423262 3.15831,-0.967658 1.57914,-0.615403 1.57917,-0.06323 1.57914,-0.351853 1.57918,0.04424 1.57914,-0.32063 1.57917,-0.206861 1.57914,-0.0023 1.57917,-0.359251 3.15831,0.398912 3.15831,-0.179582 3.15831,0.45734 1.57914,0.328423 1.57917,0.513011 1.57914,0.94104 1.57918,0.176811 1.57914,0.446959 1.57917,1.01768 1.57914,0.268764 3.15831,1.338938 1.57917,0.243555 1.57914,0.452468 1.57917,0.644556 1.57914,0.956805 1.57917,0.55374 4.73746,2.010379 3.15831,0.57013 1.57917,0.61868 1.57917,0.0902 3.15831,0.73184 1.57914,0.10853 1.57917,-0.11268 3.15831,0.68568 1.57914,-0.25783 3.15833,-0.20317 3.15829,-0.28642 1.57918,-0.31249 1.57917,0.0325 1.57914,-0.44792 1.57914,-0.21739 3.15834,-0.19448 1.57914,-0.39781 1.57914,-0.1665 1.5792,-0.40639 1.57914,-0.0912 3.15831,-1.038179 3.15832,0.158632 1.57914,-0.820971 1.57917,-0.128851 6.31662,-1.095383 3.15831,-0.480991 1.57914,-0.186714 1.57917,0.008 3.15831,-0.546816 L 289,96.366892 v 0" />
        </g>
      </g>
      <g
         id="g5179">
        <g
           clip-path="url(#clipPath5185)"
           id="g5181">
          <path
             inkscape:connector-curvature="0"
             id="path5187"
             style="fill:none;stroke:#6acc65;stroke-width:1.5;stroke-linecap:square;stroke-linejoin:round;stroke-miterlimit:10;stroke-dasharray:none;stroke-opacity:1"
             d="m -1,45.0425 75.560779,0.06938 1.579155,0.690703 1.579156,2.827825 1.579156,5.452407 1.579155,6.346813 1.579156,6.979038 1.579156,9.170544 1.579156,11.915475 3.158311,25.650255 1.579156,10.40451 1.579155,7.16051 1.579156,3.41675 1.579156,-0.20659 1.579156,-3.50634 1.579155,-5.87573 1.579156,-7.23894 3.15831,-15.06653 1.57916,-6.147975 1.57915,-4.533884 1.57916,-2.376095 1.57916,-0.524611 1.57916,0.792603 1.57915,2.228356 1.57916,3.132915 1.57915,3.673091 1.57917,4.03633 1.57914,3.70824 1.57917,3.3033 1.57914,2.74255 1.57917,2.09318 1.57914,1.7719 1.57917,1.13419 1.57914,0.78192 1.57917,0.44331 1.57914,0.0603 1.57917,-0.21357 3.15832,-1.39847 1.57914,-0.942 3.15831,-2.40994 11.0541,-10.60399 3.15831,-2.72 4.73749,-3.336939 3.15831,-1.517899 3.15831,-1.462154 1.57914,-0.637463 1.57917,-0.512573 1.57914,-0.755654 1.57917,-0.579699 4.73745,-1.223223 3.15832,-0.316404 1.57917,-0.190627 3.15831,-0.105763 3.15831,0.05794 4.73745,0.651834 7.8958,1.975146 15.79155,4.308558 4.73746,1.617716 4.73748,1.380294 3.15831,0.67448 3.15831,0.5483 6.31662,0.58623 4.73748,-0.007 3.15832,-0.16898 1.57917,-0.25177 1.57914,-0.0898 6.31662,-1.08593 4.73748,-0.42026 1.57914,-0.0658 4.73749,-0.736287 6.31662,-1.035121 4.73748,-0.442646 6.31662,-0.649143 L 289,97.18326 v 0" />
        </g>
      </g>
      <g
         id="g5189">
        <path
           inkscape:connector-curvature="0"
           id="path5191"
           style="fill:none;stroke:#000000;stroke-width:0.80000001;stroke-linecap:square;stroke-linejoin:miter;stroke-miterlimit:10;stroke-dasharray:none;stroke-opacity:1"
           d="M 50.69,45.0425 V 201.24" />
        <path
           inkscape:connector-curvature="0"
           id="path5193"
           style="fill:none;stroke:#000000;stroke-width:0.80000001;stroke-linecap:square;stroke-linejoin:miter;stroke-miterlimit:10;stroke-dasharray:none;stroke-opacity:1"
           d="M 274.005,45.0425 V 201.24" />
        <path
           inkscape:connector-curvature="0"
           id="path5195"
           style="fill:none;stroke:#000000;stroke-width:0.80000001;stroke-linecap:square;stroke-linejoin:miter;stroke-miterlimit:10;stroke-dasharray:none;stroke-opacity:1"
           d="M 50.69,45.0425 H 274.005" />
        <path
           inkscape:connector-curvature="0"
           id="path5197"
           style="fill:none;stroke:#000000;stroke-width:0.80000001;stroke-linecap:square;stroke-linejoin:miter;stroke-miterlimit:10;stroke-dasharray:none;stroke-opacity:1"
           d="M 50.69,201.24 H 274.005" />
        <path
           inkscape:connector-curvature="0"
           id="path5199"
           style="fill:#ffffff;fill-opacity:0.8;fill-rule:nonzero;stroke:#cccccc;stroke-width:1;stroke-linecap:butt;stroke-linejoin:miter;stroke-miterlimit:10;stroke-dasharray:none;stroke-opacity:0.8"
           d="m 195.0675,163.89625 h 71.9375 c 1.33333,0 2,0.66667 2,2 V 194.24 c 0,1.33333 -0.66667,2 -2,2 h -71.9375 c -1.33333,0 -2,-0.66667 -2,-2 v -28.34375 c 0,-1.33333 0.66667,-2 2,-2 z" />
        <path
           inkscape:connector-curvature="0"
           id="path5201"
           style="fill:none;stroke:#4878cf;stroke-width:1.5;stroke-linecap:square;stroke-linejoin:round;stroke-miterlimit:10;stroke-dasharray:none;stroke-opacity:1"
           d="m 197.0675,188.14625 h 20" />
        <text
           id="text5205"
           style="font-variant:normal;font-weight:normal;font-size:10px;font-family:DejaVuSans;-inkscape-font-specification:DejaVuSans;writing-mode:lr-tb;fill:#000000;fill-opacity:1;fill-rule:nonzero;stroke:none"
           transform="matrix(1,0,0,-1,225.0675,184.64625)">
          <tspan
             id="tspan5203"
             sodipodi:role="line"
             y="0"
             x="0 8.6300001 14.76 21.110001 27.459999 33.610001">Mapped</tspan>
        </text>
        <path
           inkscape:connector-curvature="0"
           id="path5207"
           style="fill:none;stroke:#6acc65;stroke-width:1.5;stroke-linecap:square;stroke-linejoin:round;stroke-miterlimit:10;stroke-dasharray:none;stroke-opacity:1"
           d="m 197.0675,173.47437 h 20" />
        <text
           id="text5211"
           style="font-variant:normal;font-weight:normal;font-size:10px;font-family:DejaVuSans;-inkscape-font-specification:DejaVuSans;writing-mode:lr-tb;fill:#000000;fill-opacity:1;fill-rule:nonzero;stroke:none"
           transform="matrix(1,0,0,-1,225.0675,169.97437)">
          <tspan
             id="tspan5209"
             sodipodi:role="line"
             y="0"
             x="0 6.98">CG</tspan>
        </text>
      </g>
    </g>
  </g>
</svg>
