<svg height="100" width="100" xmlns="http://www.w3.org/2000/svg" data-name="Layer 1"><path d="M93.2 73.179h-5.93V42.332a1.8 1.8 0 0 0-1.8-1.8H71.792v-23.75C71.792 10.174 62.22 5 50 5c-12.22 0-21.792 5.175-21.792 11.781v23.75H14.53a1.8 1.8 0 0 0-1.8 1.8V73.18H6.8a1.8 1.8 0 0 0-1.8 1.8V93.2A1.8 1.8 0 0 0 6.8 95h15.468a1.8 1.8 0 0 0 1.8-1.8V74.98a1.8 1.8 0 0 0-1.8-1.8H16.33V44.13h11.878v7.93c0 6.277 8.648 11.253 19.992 11.734v9.384h-5.934a1.8 1.8 0 0 0-1.8 1.8V93.2a1.8 1.8 0 0 0 1.8 1.8h15.468a1.8 1.8 0 0 0 1.8-1.8V74.98a1.8 1.8 0 0 0-1.8-1.8H51.8v-9.384c11.344-.481 19.992-5.457 19.992-11.733v-7.93H83.67v29.047h-5.938a1.8 1.8 0 0 0-1.8 1.8V93.2a1.8 1.8 0 0 0 1.8 1.8H93.2a1.8 1.8 0 0 0 1.8-1.8V74.98a1.8 1.8 0 0 0-1.8-1.8ZM20.468 91.4H8.6V76.778h11.868Zm35.467 0h-11.87V76.778h11.87ZM50 8.6c10.721 0 18.193 4.312 18.193 8.181S60.72 24.962 50 24.962c-10.72 0-18.192-4.311-18.192-8.18S39.279 8.6 50 8.6ZM31.808 23.346C35.675 26.51 42.31 28.562 50 28.562c7.69 0 14.325-2.051 18.193-5.216v5.195c0 3.87-7.472 8.182-18.193 8.182-10.72 0-18.192-4.312-18.192-8.182Zm0 11.76C35.675 38.27 42.31 40.322 50 40.322c7.69 0 14.325-2.05 18.193-5.216V40.3c0 3.87-7.472 8.181-18.193 8.181-10.72 0-18.192-4.311-18.192-8.18ZM50 60.243c-10.72 0-18.192-4.312-18.192-8.181v-5.196C35.675 50.03 42.31 52.082 50 52.082c7.69 0 14.325-2.051 18.193-5.216v5.195c0 3.87-7.472 8.182-18.193 8.182ZM91.4 91.4H79.532V76.778H91.4Z"/></svg>