<svg xmlns="http://www.w3.org/2000/svg" height="100" width="100" viewBox="0 0 64 64" style="enable-background:new 0 0 64 64" xml:space="preserve"><text transform="translate(14.69 -213)"><tspan x="0" y="0" font-family="'Montserrat-Regular'" font-size="10">heart</tspan><tspan x="4.3" y="12" font-family="'Montserrat-Regular'" font-size="10">r</tspan><tspan x="11.53" y="12" font-family="'Montserrat-Regular'" font-size="10">a</tspan><tspan x="18.12" y="12" font-family="'Montserrat-Regular'" font-size="10">te</tspan></text><text transform="translate(118.27 -213)" font-family="'Montserrat-Regular'" font-size="10">tea</text><text transform="translate(100.23 -117)" font-family="'Montserrat-Regular'" font-size="10">checklist</text><text transform="translate(201.475 -213)"><tspan x="0" y="0" font-family="'Montserrat-Regular'" font-size="10">pr</tspan><tspan x="13.94" y="0" font-family="'Montserrat-Regular'" font-size="10">o</tspan><tspan x="21.95" y="0" font-family="'Montserrat-Regular'" font-size="10">tein</tspan><tspan x="-14.805" y="12" font-family="'Montserrat-Regular'" font-size="10">supplements</tspan></text><text transform="translate(293.1 -213)"><tspan x="0" y="0" font-family="'Montserrat-Regular'" font-size="10">Weighing</tspan><tspan x="7.75" y="12" font-family="'Montserrat-Regular'" font-size="10">s</tspan><tspan x="13.91" y="12" font-family="'Montserrat-Regular'" font-size="10">c</tspan><tspan x="20.86" y="12" font-family="'Montserrat-Regular'" font-size="10">ales</tspan></text><text transform="translate(393.475 -213)"><tspan x="0" y="0" font-family="'Montserrat-Regular'" font-size="10">pr</tspan><tspan x="13.94" y="0" font-family="'Montserrat-Regular'" font-size="10">o</tspan><tspan x="21.95" y="0" font-family="'Montserrat-Regular'" font-size="10">tein</tspan><tspan x="5.05" y="12" font-family="'Montserrat-Regular'" font-size="10">shake</tspan></text><text transform="translate(495.055 -213)"><tspan x="0" y="0" font-family="'Montserrat-Regular'" font-size="10">Sport</tspan><tspan x="-1.42" y="12" font-family="'Montserrat-Regular'" font-size="10">w</tspan><tspan x="8.57" y="12" font-family="'Montserrat-Regular'" font-size="10">a</tspan><tspan x="15.16" y="12" font-family="'Montserrat-Regular'" font-size="10">t</tspan><tspan x="20.39" y="12" font-family="'Montserrat-Regular'" font-size="10">ch</tspan></text><text transform="translate(7.785 -117)"><tspan x="0" y="0" font-family="'Montserrat-Regular'" font-size="10">vi</tspan><tspan x="9.72" y="0" font-family="'Montserrat-Regular'" font-size="10">t</tspan><tspan x="14.72" y="0" font-family="'Montserrat-Regular'" font-size="10">amins</tspan></text><text transform="translate(205.995 -117)"><tspan x="0" y="0" font-family="'Montserrat-Regular'" font-size="10">W</tspan><tspan x="9.99" y="0" font-family="'Montserrat-Regular'" font-size="10">a</tspan><tspan x="16.58" y="0" font-family="'Montserrat-Regular'" font-size="10">ter</tspan><tspan x="-1.115" y="12" font-family="'Montserrat-Regular'" font-size="10">B</tspan><tspan x="6.005" y="12" font-family="'Montserrat-Regular'" font-size="10">o</tspan><tspan x="14.015" y="12" font-family="'Montserrat-Regular'" font-size="10">ttle</tspan></text><text transform="translate(290.646 -117)"><tspan x="0" y="0" font-family="'Montserrat-Regular'" font-size="10"> dumbbell</tspan><tspan x="5.745" y="12" font-family="'Montserrat-Regular'" font-size="10">weights</tspan></text><text transform="translate(385.58 -117)" font-family="'Montserrat-Regular'" font-size="10">kettlebell</text><text transform="translate(487.43 -117)" font-family="'Montserrat-Regular'" font-size="10">running</text><text transform="translate(17.79 -21)" font-family="'Montserrat-Regular'" font-size="10">meal</text><text transform="translate(116.505 -21)" font-family="'Montserrat-Regular'" font-size="10">diet</text><text transform="translate(199.93 -21)"><tspan x="0" y="0" font-family="'Montserrat-Regular'" font-size="10">Electric</tspan><tspan x="-4.605" y="12" font-family="'Montserrat-Regular'" font-size="10">treadmill</tspan></text><text transform="translate(293.045 -21)"><tspan x="0" y="0" font-family="'Montserrat-Regular'" font-size="10">W</tspan><tspan x="10.32" y="0" font-family="'Montserrat-Regular'" font-size="10">or</tspan><tspan x="25.67" y="0" font-family="'Montserrat-Regular'" font-size="10">k</tspan><tspan x="32.5" y="0" font-family="'Montserrat-Regular'" font-size="10">out</tspan><tspan x="-.46" y="12" font-family="'Montserrat-Regular'" font-size="10">Schedule</tspan></text><text transform="translate(401.335 -21)"><tspan x="0" y="0" font-family="'Montserrat-Regular'" font-size="10">bo</tspan><tspan x="15.24" y="0" font-family="'Montserrat-Regular'" font-size="10">d</tspan><tspan x="23.03" y="0" font-family="'Montserrat-Regular'" font-size="10">y</tspan><tspan x="-2.63" y="12" font-family="'Montserrat-Regular'" font-size="10">shape</tspan></text><text transform="translate(491.47 -21)"><tspan x="0" y="0" font-family="'Montserrat-Regular'" font-size="10">weight</tspan><tspan x="-4.205" y="12" font-family="'Montserrat-Regular'" font-size="10">training</tspan></text><text transform="translate(.505 75)"><tspan x="0" y="0" font-family="'Montserrat-Regular'" font-size="10">medi</tspan><tspan x="26.71" y="0" font-family="'Montserrat-Regular'" font-size="10">ta</tspan><tspan x="38.3" y="0" font-family="'Montserrat-Regular'" font-size="10">tion</tspan></text><text transform="translate(93.63 75)"><tspan x="0" y="0" font-family="'Montserrat-Regular'" font-size="10">brain</tspan><tspan x="32.51" y="0" font-family="'Montserrat-Regular'" font-size="10">wa</tspan><tspan x="49.29" y="0" font-family="'Montserrat-Regular'" font-size="10">ves</tspan></text><text transform="translate(206.915 75)"><tspan x="0" y="0" font-family="'Montserrat-Regular'" font-size="10">fl</tspan><tspan x="10.92" y="0" font-family="'Montserrat-Regular'" font-size="10">o</tspan><tspan x="18.82" y="0" font-family="'Montserrat-Regular'" font-size="10">or</tspan><tspan x="3.475" y="12" font-family="'Montserrat-Regular'" font-size="10">p</tspan><tspan x="10.185" y="12" font-family="'Montserrat-Regular'" font-size="10">l</tspan><tspan x="15.495" y="12" font-family="'Montserrat-Regular'" font-size="10">an</tspan></text><text transform="translate(304.015 75)"><tspan x="0" y="0" font-family="'Montserrat-Regular'" font-size="10">home</tspan><tspan x="1.79" y="12" font-family="'Montserrat-Regular'" font-size="10">l</tspan><tspan x="7.03" y="12" font-family="'Montserrat-Regular'" font-size="10">o</tspan><tspan x="14.98" y="12" font-family="'Montserrat-Regular'" font-size="10">an</tspan></text><text transform="translate(381.3 75)"><tspan x="0" y="0" font-family="'Montserrat-Regular'" font-size="10">house price</tspan><tspan x="11.285" y="12" font-family="'Montserrat-Regular'" font-size="10">gr</tspan><tspan x="26.024" y="12" font-family="'Montserrat-Regular'" font-size="10">o</tspan><tspan x="34.055" y="12" font-family="'Montserrat-Regular'" font-size="10">wth</tspan></text><text transform="translate(496.015 75)"><tspan x="0" y="0" font-family="'Montserrat-Regular'" font-size="10">home</tspan><tspan x="-17.665" y="12" font-family="'Montserrat-Regular'" font-size="10">ren</tspan><tspan x="4.035" y="12" font-family="'Montserrat-Regular'" font-size="10">o</tspan><tspan x="12.065" y="12" font-family="'Montserrat-Regular'" font-size="10">v</tspan><tspan x="18.355" y="12" font-family="'Montserrat-Regular'" font-size="10">a</tspan><tspan x="24.945" y="12" font-family="'Montserrat-Regular'" font-size="10">tion</tspan></text><text transform="translate(16.015 171)"><tspan x="0" y="0" font-family="'Montserrat-Regular'" font-size="10">home</tspan><tspan x="-14.33" y="12" font-family="'Montserrat-Regular'" font-size="10">insurance</tspan></text><text transform="translate(106.97 171)"><tspan x="0" y="0" font-family="'Montserrat-Regular'" font-size="10">bu</tspan><tspan x="14.74" y="0" font-family="'Montserrat-Regular'" font-size="10">d</tspan><tspan x="22.35" y="0" font-family="'Montserrat-Regular'" font-size="10">get</tspan><tspan x="2.85" y="12" font-family="'Montserrat-Regular'" font-size="10">house</tspan></text><text transform="translate(206.96 171)"><tspan x="0" y="0" font-family="'Montserrat-Regular'" font-size="10">so</tspan><tspan x="14.28" y="0" font-family="'Montserrat-Regular'" font-size="10">l</tspan><tspan x="19.59" y="0" font-family="'Montserrat-Regular'" font-size="10">ar</tspan><tspan x="-2.675" y="12" font-family="'Montserrat-Regular'" font-size="10">p</tspan><tspan x="3.625" y="12" font-family="'Montserrat-Regular'" font-size="10">anels</tspan></text><text transform="translate(295.88 171)"><tspan x="0" y="0" font-family="'Montserrat-Regular'" font-size="10">housing</tspan><tspan x="-5.705" y="12" font-family="'Montserrat-Regular'" font-size="10">do</tspan><tspan x="9.805" y="12" font-family="'Montserrat-Regular'" font-size="10">cument</tspan></text><text transform="translate(391.88 171)"><tspan x="0" y="0" font-family="'Montserrat-Regular'" font-size="10">housing</tspan><tspan x="10.51" y="12" font-family="'Montserrat-Regular'" font-size="10">p</tspan><tspan x="17.22" y="12" font-family="'Montserrat-Regular'" font-size="10">l</tspan><tspan x="22.529" y="12" font-family="'Montserrat-Regular'" font-size="10">an</tspan></text><text transform="translate(493.82 171)"><tspan x="0" y="0" font-family="'Montserrat-Regular'" font-size="10">house</tspan><tspan x=".81" y="12" font-family="'Montserrat-Regular'" font-size="10">a</tspan><tspan x="7.9" y="12" font-family="'Montserrat-Regular'" font-size="10">gent</tspan></text><text transform="translate(3.98 267)"><tspan x="0" y="0" font-family="'Montserrat-Regular'" font-size="10">grad</tspan><tspan x="29.83" y="0" font-family="'Montserrat-Regular'" font-size="10">u</tspan><tspan x="37.25" y="0" font-family="'Montserrat-Regular'" font-size="10">a</tspan><tspan x="43.84" y="0" font-family="'Montserrat-Regular'" font-size="10">te</tspan></text><text transform="translate(101.415 267)" font-family="'Montserrat-Regular'" font-size="10">engineer</text><text transform="translate(210.435 267)" font-family="'Montserrat-Regular'" font-size="10">chef</text><text transform="translate(304.015 267)"><tspan x="0" y="0" font-family="'Montserrat-Regular'" font-size="10">home</tspan><tspan x="-5.31" y="12" font-family="'Montserrat-Regular'" font-size="10">m</tspan><tspan x="4.08" y="12" font-family="'Montserrat-Regular'" font-size="10">o</tspan><tspan x="12.11" y="12" font-family="'Montserrat-Regular'" font-size="10">ving</tspan></text><text transform="translate(397.82 267)"><tspan x="0" y="0" font-family="'Montserrat-Regular'" font-size="10">house</tspan><tspan x="-7.33" y="12" font-family="'Montserrat-Regular'" font-size="10">for rent</tspan></text><text transform="translate(493.82 267)"><tspan x="0" y="0" font-family="'Montserrat-Regular'" font-size="10">house</tspan><tspan x="-12.81" y="12" font-family="'Montserrat-Regular'" font-size="10">inspection</tspan></text><path style="fill:#fff;fill-opacity:1" d="M60 4h2v2h-2zM58 2h2v2h-2zM56 4h2v2h-2zM58 6h2v2h-2zM52 4h2v2h-2zM50 24h2v2h-2zM54 24h2v2h-2zM52 22h2v2h-2zM52 26h2v2h-2zM13 21h2v2h-2zM11 19h2v2h-2zM9 21h2v2H9zM11 23h2v2h-2zM5 21h2v2H5zM2 8h2v2H2zM6 8h2v2H6zM4 6h2v2H4zM4 10h2v2H4zM16 2h2v2h-2zM53 47h-2.42L47 40.734V30c0-2.206-1.794-4-4-4V12.999C43 6.626 38.374 2 32 2c-6.876 0-10.799 5.648-11 10.962 0 .013.007.025.007.038H21v13c-2.206 0-4 1.794-4 4v10.734L13.42 47H11c-1.654 0-3 1.346-3 3 0 1.299.834 2.396 1.991 2.813A3.95 3.95 0 0 0 9 55.405a3.989 3.989 0 0 0 3.436 3.937l19.429 2.649a1.02 1.02 0 0 0 .27 0l19.429-2.649A3.989 3.989 0 0 0 55 55.405c0-.964-.366-1.875-.991-2.592A2.995 2.995 0 0 0 56 50c0-1.654-1.346-3-3-3zm-8-17v11c0 .174.045.345.132.496l4 7A.999.999 0 0 0 50 49h3a1.001 1.001 0 0 1 0 2h-5.529l-6.365-7.705 2.701-15.125A2.003 2.003 0 0 1 45 30zm-19.316.948 6 2a1.006 1.006 0 0 0 .632 0l6-2A.997.997 0 0 0 39 30v-2h2.719l-4.5 18H26.781l-4.5-18H25v2c0 .431.275.813.684.948zm3.789-19.098.003-.002c.308-.167.612-.341.91-.526.065-.04.129-.082.194-.123.261-.166.52-.333.773-.513.148-.104.29-.217.435-.326.166-.125.337-.243.499-.374.029.099.078.19.111.288.089.257.176.516.294.759.013.027.031.05.044.076a7.038 7.038 0 0 0 2.973 3.068l.016.007c.323.172.66.32 1.01.44.102.035.212.05.316.08.259.075.516.154.786.199.378.064.767.097 1.163.097h.443c-.889 2.387-2.754 4.408-4.841 5.38-.006.003-.013.003-.02.006a6.909 6.909 0 0 1-1.285.452l-.029.008c-1.283.302-2.524.15-3.85-.46-.036-.017-.074-.023-.111-.035-2.438-1.16-4.51-3.743-5.12-6.63a18.058 18.058 0 0 0 5.286-1.871zM30 27v-4.277c.304.081.61.145.918.189.036.005.072.014.108.019.324.043.648.069.974.069.309 0 .618-.026.927-.065.077-.01.154-.026.231-.038.251-.04.5-.091.749-.155.031-.008.062-.011.094-.019V27a1 1 0 0 0 1 1h2v1.279l-5 1.667-5-1.667V28h2A1 1 0 0 0 30 27zm2 26.987-9.995-1.578L26.414 48h11.172l4.409 4.409L32 53.987zm-7.107-7.294-5.569 5.569-1.117-.152 6.172-7.471.514 2.054zm19.783 5.569-5.569-5.569.514-2.055 6.172 7.471-1.117.153zM38 26h-2v-4.085c2.109-1.147 3.933-3.118 5-5.469V26h-3zM32 4c5.299 0 9 3.7 9 8.999L39 13c-2.757 0-5-2.243-5-5a1 1 0 0 0-.617-.924.97.97 0 0 0-.35-.07C33.022 7.006 33.011 7 33 7c-.02 0-.038.01-.057.011a.944.944 0 0 0-.263.052c-.031.01-.06.019-.09.032a.99.99 0 0 0-.297.198 16.216 16.216 0 0 1-9.176 4.565C23.759 7.86 26.879 4 32 4zm-9 12.449c1.06 2.349 2.876 4.323 5 5.472V26h-5v-9.551zM11 49h3c.359 0 .69-.192.868-.504l4-7A.993.993 0 0 0 19 41V30c0-.815.491-1.52 1.193-1.83l2.701 15.125L16.529 51H11a1.001 1.001 0 0 1 0-2zm21 10.991-19.294-2.632a1.97 1.97 0 1 1 .532-3.907l18.415 2.511 5.353 3.346-5.006.682zm19.294-2.632-11.191 1.526-5.229-3.268L50.76 53.45a1.952 1.952 0 0 1 1.564.469 1.972 1.972 0 0 1-1.03 3.44z"/></svg>